<?xml version="1.0" encoding="UTF-8"?>
<svg width="500px" height="400px" viewBox="0 0 500 400" version="1.1" xmlns="http://www.w3.org/2000/svg">
    <g id="studying-student" stroke="none" stroke-width="1" fill="none" fill-rule="evenodd">
        <!-- Desk -->
        <rect id="desk-top" fill="#805AD5" x="50" y="250" width="400" height="20" rx="2"></rect>
        <rect id="desk-leg-left" fill="#805AD5" x="80" y="270" width="20" height="100" rx="2"></rect>
        <rect id="desk-leg-right" fill="#805AD5" x="400" y="270" width="20" height="100" rx="2"></rect>
        
        <!-- Chair -->
        <rect id="chair-seat" fill="#553C9A" x="150" y="260" width="100" height="15" rx="2"></rect>
        <rect id="chair-back" fill="#553C9A" x="150" y="180" width="15" height="80" rx="2"></rect>
        <rect id="chair-leg" fill="#553C9A" x="180" y="275" width="15" height="95" rx="2"></rect>
        
        <!-- Books Stack -->
        <g id="books" transform="translate(350, 200)">
            <rect fill="#F56565" x="0" y="30" width="70" height="20" rx="2"></rect>
            <rect fill="#48BB78" x="-5" y="10" width="70" height="20" rx="2"></rect>
            <rect fill="#3182CE" x="5" y="-10" width="70" height="20" rx="2"></rect>
            <rect fill="#D69E2E" x="10" y="-30" width="50" height="20" rx="2"></rect>
        </g>
        
        <!-- Laptop -->
        <g id="laptop" transform="translate(220, 200)">
            <rect id="laptop-base" fill="#2A4365" x="0" y="30" width="120" height="20" rx="4"></rect>
            <path id="laptop-screen" d="M10,30 L110,30 L100,-40 L20,-40 Z" fill="#2C5282"></path>
            <rect id="laptop-screen-inner" fill="#90CDF4" x="25" y="-30" width="70" height="50" rx="2"></rect>
            <rect id="laptop-keyboard" fill="#1A202C" x="30" y="32" width="60" height="15" rx="2"></rect>
        </g>
        
        <!-- Coffee Cup -->
        <g id="coffee-cup" transform="translate(120, 220)">
            <path d="M0,0 L10,30 L30,30 L40,0 Z" fill="#DD6B20"></path>
            <path d="M5,5 L10,25 L30,25 L35,5 Z" fill="#F6AD55"></path>
            <path d="M40,5 C50,5 50,15 40,15" stroke="#DD6B20" stroke-width="3" fill="none"></path>
        </g>
        
        <!-- Notes and Papers -->
        <g id="notes" transform="translate(70, 210)">
            <rect fill="#F7FAFC" x="0" y="0" width="80" height="40" rx="2"></rect>
            <rect fill="#4A5568" x="10" y="10" width="60" height="2" rx="1"></rect>
            <rect fill="#4A5568" x="10" y="20" width="40" height="2" rx="1"></rect>
            <rect fill="#4A5568" x="10" y="30" width="50" height="2" rx="1"></rect>
        </g>
        
        <!-- Student -->
        <g id="student" transform="translate(200, 140)">
            <!-- Body -->
            <path id="torso" d="M0,60 C-20,100 70,100 50,60" fill="#3182CE"></path>
            
            <!-- Head -->
            <circle id="head" fill="#F6AD55" cx="25" cy="20" r="20"></circle>
            
            <!-- Hair -->
            <path id="hair" d="M10,10 C0,0 50,0 40,10 L40,25 C40,15 10,15 10,25 Z" fill="#2D3748"></path>
            
            <!-- Eyes (focused on laptop) -->
            <circle id="eye-left" fill="#2D3748" cx="18" cy="18" r="2"></circle>
            <circle id="eye-right" fill="#2D3748" cx="32" cy="18" r="2"></circle>
            
            <!-- Concentrated Expression -->
            <path id="mouth" d="M20,30 L30,30" stroke="#2D3748" stroke-width="1.5" stroke-linecap="round"></path>
            
            <!-- Arms typing on laptop -->
            <path id="arm-left" d="M0,60 C-15,80 0,100 30,85" stroke="#F6AD55" stroke-width="7" stroke-linecap="round"></path>
            <path id="arm-right" d="M50,60 C65,80 50,100 45,85" stroke="#F6AD55" stroke-width="7" stroke-linecap="round"></path>
            
            <!-- Glasses -->
            <circle id="glasses-left" stroke="#4A5568" stroke-width="1" fill="none" cx="18" cy="18" r="5"></circle>
            <circle id="glasses-right" stroke="#4A5568" stroke-width="1" fill="none" cx="32" cy="18" r="5"></circle>
            <line x1="23" y1="18" x2="27" y2="18" stroke="#4A5568" stroke-width="1"></line>
        </g>
        
        <!-- Plant for decoration -->
        <g id="plant" transform="translate(50, 180)">
            <rect id="pot" fill="#E53E3E" x="0" y="40" width="30" height="30" rx="2"></rect>
            <path id="leaf1" d="M15,10 C30,15 35,30 15,40" fill="#48BB78"></path>
            <path id="leaf2" d="M15,10 C0,15 -5,30 15,40" fill="#48BB78"></path>
            <path id="stem" d="M15,40 L15,20" stroke="#2F855A" stroke-width="2"></path>
        </g>
        
        <!-- Clock on wall -->
        <g id="clock" transform="translate(400, 100)">
            <circle fill="#E2E8F0" cx="25" cy="25" r="25"></circle>
            <circle fill="#2D3748" cx="25" cy="25" r="2"></circle>
            <line x1="25" y1="25" x2="25" y2="10" stroke="#2D3748" stroke-width="2" stroke-linecap="round"></line>
            <line x1="25" y1="25" x2="35" y2="30" stroke="#2D3748" stroke-width="2" stroke-linecap="round"></line>
            <line x1="25" y1="5" x2="25" y2="7" stroke="#4A5568" stroke-width="2" stroke-linecap="round"></line>
            <line x1="25" y1="43" x2="25" y2="45" stroke="#4A5568" stroke-width="2" stroke-linecap="round"></line>
            <line x1="5" y1="25" x2="7" y2="25" stroke="#4A5568" stroke-width="2" stroke-linecap="round"></line>
            <line x1="43" y1="25" x2="45" y2="25" stroke="#4A5568" stroke-width="2" stroke-linecap="round"></line>
        </g>
    </g>
</svg>